<svg xmlns="http://www.w3.org/2000/svg" version="1.1" xmlns:xlink="http://www.w3.org/1999/xlink" xmlns:svgjs="http://svgjs.com/svgjs" width="350" height="300" preserveAspectRatio="none" viewBox="0 0 350 300"><g mask="url(&quot;#SvgjsMask1184&quot;)" fill="none"><rect width="350" height="300" x="0" y="0" fill="rgba(76, 145, 232, 0.32)"></rect><g mask="url(&quot;#SvgjsMask1185&quot;)"><path d="M54 162L54 246L102 294L150 294L198 246" stroke-width="2" stroke="rgba(255, 255, 255, 0.45)"></path><path d="M51 162 a3 3 0 1 0 6 0 a3 3 0 1 0 -6 0zM195 246 a3 3 0 1 0 6 0 a3 3 0 1 0 -6 0z" fill="rgba(255, 255, 255, 0.45)"></path><path d="M102 6L6 6" stroke-width="2" stroke="rgba(255, 255, 255, 0.45)"></path><path d="M99 6 a3 3 0 1 0 6 0 a3 3 0 1 0 -6 0zM3 6 a3 3 0 1 0 6 0 a3 3 0 1 0 -6 0z" fill="rgba(255, 255, 255, 0.45)"></path><path d="M138 6L114 6L6 114L6 126L42 162L42 210" stroke-width="2" stroke="rgba(255, 255, 255, 0.45)"></path><path d="M135 6 a3 3 0 1 0 6 0 a3 3 0 1 0 -6 0zM39 210 a3 3 0 1 0 6 0 a3 3 0 1 0 -6 0z" fill="rgba(255, 255, 255, 0.45)"></path><path d="M270 210L186 294L162 294" stroke-width="2" stroke="rgba(255, 255, 255, 0.45)"></path><path d="M267 210 a3 3 0 1 0 6 0 a3 3 0 1 0 -6 0zM159 294 a3 3 0 1 0 6 0 a3 3 0 1 0 -6 0z" fill="rgba(255, 255, 255, 0.45)"></path><path d="M294 186L294 258L258 294L198 294" stroke-width="2" stroke="rgba(255, 255, 255, 0.45)"></path><path d="M291 186 a3 3 0 1 0 6 0 a3 3 0 1 0 -6 0zM195 294 a3 3 0 1 0 6 0 a3 3 0 1 0 -6 0z" fill="rgba(255, 255, 255, 0.45)"></path><path d="M318 246L318 258L342 282L354 282" stroke-width="2" stroke="rgba(255, 255, 255, 0.45)"></path><path d="M315 246 a3 3 0 1 0 6 0 a3 3 0 1 0 -6 0zM351 282 a3 3 0 1 0 6 0 a3 3 0 1 0 -6 0z" fill="rgba(255, 255, 255, 0.45)"></path><path d="M210 90L294 90L354 30L354 18L342 6L282 6" stroke-width="2" stroke="rgba(255, 255, 255, 0.45)"></path><path d="M207 90 a3 3 0 1 0 6 0 a3 3 0 1 0 -6 0zM279 6 a3 3 0 1 0 6 0 a3 3 0 1 0 -6 0z" fill="rgba(255, 255, 255, 0.45)"></path><path d="M198 174L270 102L294 102L354 42" stroke-width="2" stroke="rgba(255, 255, 255, 0.45)"></path><path d="M195 174 a3 3 0 1 0 6 0 a3 3 0 1 0 -6 0zM351 42 a3 3 0 1 0 6 0 a3 3 0 1 0 -6 0z" fill="rgba(255, 255, 255, 0.45)"></path><path d="M138 78L54 78L18 114L18 126L42 150L66 150L114 102" stroke-width="2" stroke="rgba(255, 255, 255, 0.45)"></path><path d="M135 78 a3 3 0 1 0 6 0 a3 3 0 1 0 -6 0zM111 102 a3 3 0 1 0 6 0 a3 3 0 1 0 -6 0z" fill="rgba(255, 255, 255, 0.45)"></path><path d="M198 162L222 138L222 114L234 102L258 102" stroke-width="2" stroke="rgba(255, 255, 255, 0.45)"></path><path d="M195 162 a3 3 0 1 0 6 0 a3 3 0 1 0 -6 0zM255 102 a3 3 0 1 0 6 0 a3 3 0 1 0 -6 0z" fill="rgba(255, 255, 255, 0.45)"></path><path d="M54 30L42 18L6 18" stroke-width="2" stroke="rgba(255, 255, 255, 0.45)"></path><path d="M51 30 a3 3 0 1 0 6 0 a3 3 0 1 0 -6 0zM3 18 a3 3 0 1 0 6 0 a3 3 0 1 0 -6 0z" fill="rgba(255, 255, 255, 0.45)"></path><path d="M174 114L270 18L270 6" stroke-width="2" stroke="rgba(255, 255, 255, 0.45)"></path><path d="M171 114 a3 3 0 1 0 6 0 a3 3 0 1 0 -6 0zM267 6 a3 3 0 1 0 6 0 a3 3 0 1 0 -6 0z" fill="rgba(255, 255, 255, 0.45)"></path><path d="M138 90L222 6L258 6" stroke-width="2" stroke="rgba(255, 255, 255, 0.45)"></path><path d="M135 90 a3 3 0 1 0 6 0 a3 3 0 1 0 -6 0zM255 6 a3 3 0 1 0 6 0 a3 3 0 1 0 -6 0z" fill="rgba(255, 255, 255, 0.45)"></path><path d="M114 234L210 138L210 114L198 102" stroke-width="2" stroke="rgba(255, 255, 255, 0.45)"></path><path d="M111 234 a3 3 0 1 0 6 0 a3 3 0 1 0 -6 0zM195 102 a3 3 0 1 0 6 0 a3 3 0 1 0 -6 0z" fill="rgba(255, 255, 255, 0.45)"></path><path d="M318 102L306 102L126 282L102 282L90 270" stroke-width="2" stroke="rgba(255, 255, 255, 0.45)"></path><path d="M315 102 a3 3 0 1 0 6 0 a3 3 0 1 0 -6 0zM87 270 a3 3 0 1 0 6 0 a3 3 0 1 0 -6 0z" fill="rgba(255, 255, 255, 0.45)"></path><path d="M30 282L6 258L6 138" stroke-width="2" stroke="rgba(255, 255, 255, 0.45)"></path><path d="M27 282 a3 3 0 1 0 6 0 a3 3 0 1 0 -6 0zM3 138 a3 3 0 1 0 6 0 a3 3 0 1 0 -6 0z" fill="rgba(255, 255, 255, 0.45)"></path><path d="M342 246L342 222L354 210L354 198L294 138L294 126L306 114L354 114" stroke-width="2" stroke="rgba(255, 255, 255, 0.45)"></path><path d="M339 246 a3 3 0 1 0 6 0 a3 3 0 1 0 -6 0zM351 114 a3 3 0 1 0 6 0 a3 3 0 1 0 -6 0z" fill="rgba(255, 255, 255, 0.45)"></path><path d="M162 234L282 114" stroke-width="2" stroke="rgba(255, 255, 255, 0.45)"></path><path d="M159 234 a3 3 0 1 0 6 0 a3 3 0 1 0 -6 0zM279 114 a3 3 0 1 0 6 0 a3 3 0 1 0 -6 0z" fill="rgba(255, 255, 255, 0.45)"></path><path d="M270 150L270 198L210 258L198 258" stroke-width="2" stroke="rgba(255, 255, 255, 0.45)"></path><path d="M267 150 a3 3 0 1 0 6 0 a3 3 0 1 0 -6 0zM195 258 a3 3 0 1 0 6 0 a3 3 0 1 0 -6 0z" fill="rgba(255, 255, 255, 0.45)"></path><path d="M270 30L222 78" stroke-width="2" stroke="rgba(255, 255, 255, 0.45)"></path><path d="M267 30 a3 3 0 1 0 6 0 a3 3 0 1 0 -6 0zM219 78 a3 3 0 1 0 6 0 a3 3 0 1 0 -6 0z" fill="rgba(255, 255, 255, 0.45)"></path><path d="M30 210L30 198L18 186L18 150" stroke-width="2" stroke="rgba(255, 255, 255, 0.45)"></path><path d="M27 210 a3 3 0 1 0 6 0 a3 3 0 1 0 -6 0zM15 150 a3 3 0 1 0 6 0 a3 3 0 1 0 -6 0z" fill="rgba(255, 255, 255, 0.45)"></path><path d="M210 246L198 234L198 222L258 162" stroke-width="2" stroke="rgba(255, 255, 255, 0.45)"></path><path d="M207 246 a3 3 0 1 0 6 0 a3 3 0 1 0 -6 0zM255 162 a3 3 0 1 0 6 0 a3 3 0 1 0 -6 0z" fill="rgba(255, 255, 255, 0.45)"></path><path d="M138 246L138 258L126 270L102 270L66 234L66 162L78 150L138 150" stroke-width="2" stroke="rgba(255, 255, 255, 0.45)"></path><path d="M135 246 a3 3 0 1 0 6 0 a3 3 0 1 0 -6 0zM135 150 a3 3 0 1 0 6 0 a3 3 0 1 0 -6 0z" fill="rgba(255, 255, 255, 0.45)"></path><path d="M330 222L330 258L342 270L354 270" stroke-width="2" stroke="rgba(255, 255, 255, 0.45)"></path><path d="M327 222 a3 3 0 1 0 6 0 a3 3 0 1 0 -6 0zM351 270 a3 3 0 1 0 6 0 a3 3 0 1 0 -6 0z" fill="rgba(255, 255, 255, 0.45)"></path><path d="M102 174L78 198L78 234" stroke-width="2" stroke="rgba(255, 255, 255, 0.45)"></path><path d="M99 174 a3 3 0 1 0 6 0 a3 3 0 1 0 -6 0zM75 234 a3 3 0 1 0 6 0 a3 3 0 1 0 -6 0z" fill="rgba(255, 255, 255, 0.45)"></path><path d="M114 174L138 198" stroke-width="2" stroke="rgba(255, 255, 255, 0.45)"></path><path d="M111 174 a3 3 0 1 0 6 0 a3 3 0 1 0 -6 0zM135 198 a3 3 0 1 0 6 0 a3 3 0 1 0 -6 0z" fill="rgba(255, 255, 255, 0.45)"></path><path d="M6 42L18 30L42 30L54 42L66 42L90 18" stroke-width="2" stroke="rgba(255, 255, 255, 0.45)"></path><path d="M3 42 a3 3 0 1 0 6 0 a3 3 0 1 0 -6 0zM87 18 a3 3 0 1 0 6 0 a3 3 0 1 0 -6 0z" fill="rgba(255, 255, 255, 0.45)"></path><path d="M174 30L198 6L210 6" stroke-width="2" stroke="rgba(255, 255, 255, 0.45)"></path><path d="M171 30 a3 3 0 1 0 6 0 a3 3 0 1 0 -6 0zM207 6 a3 3 0 1 0 6 0 a3 3 0 1 0 -6 0z" fill="rgba(255, 255, 255, 0.45)"></path><path d="M198 54L114 138L90 138" stroke-width="2" stroke="rgba(255, 255, 255, 0.45)"></path><path d="M195 54 a3 3 0 1 0 6 0 a3 3 0 1 0 -6 0zM87 138 a3 3 0 1 0 6 0 a3 3 0 1 0 -6 0z" fill="rgba(255, 255, 255, 0.45)"></path><path d="M246 30L234 42L198 42" stroke-width="2" stroke="rgba(255, 255, 255, 0.45)"></path><path d="M243 30 a3 3 0 1 0 6 0 a3 3 0 1 0 -6 0zM195 42 a3 3 0 1 0 6 0 a3 3 0 1 0 -6 0z" fill="rgba(255, 255, 255, 0.45)"></path><path d="M270 246L234 282L210 282" stroke-width="2" stroke="rgba(255, 255, 255, 0.45)"></path><path d="M267 246 a3 3 0 1 0 6 0 a3 3 0 1 0 -6 0zM207 282 a3 3 0 1 0 6 0 a3 3 0 1 0 -6 0z" fill="rgba(255, 255, 255, 0.45)"></path><path d="M114 90L54 90L30 114L30 126L42 138L66 138L102 102" stroke-width="2" stroke="rgba(255, 255, 255, 0.45)"></path><path d="M111 90 a3 3 0 1 0 6 0 a3 3 0 1 0 -6 0zM99 102 a3 3 0 1 0 6 0 a3 3 0 1 0 -6 0z" fill="rgba(255, 255, 255, 0.45)"></path><path d="M150 114L186 150" stroke-width="2" stroke="rgba(255, 255, 255, 0.45)"></path><path d="M147 114 a3 3 0 1 0 6 0 a3 3 0 1 0 -6 0zM183 150 a3 3 0 1 0 6 0 a3 3 0 1 0 -6 0z" fill="rgba(255, 255, 255, 0.45)"></path><path d="M78 18L54 18" stroke-width="2" stroke="rgba(255, 255, 255, 0.45)"></path><path d="M75 18 a3 3 0 1 0 6 0 a3 3 0 1 0 -6 0zM51 18 a3 3 0 1 0 6 0 a3 3 0 1 0 -6 0z" fill="rgba(255, 255, 255, 0.45)"></path><path d="M198 126L174 126" stroke-width="2" stroke="rgba(255, 255, 255, 0.45)"></path><path d="M195 126 a3 3 0 1 0 6 0 a3 3 0 1 0 -6 0zM171 126 a3 3 0 1 0 6 0 a3 3 0 1 0 -6 0z" fill="rgba(255, 255, 255, 0.45)"></path><path d="M66 294L90 294" stroke-width="2" stroke="rgba(255, 255, 255, 0.45)"></path><path d="M63 294 a3 3 0 1 0 6 0 a3 3 0 1 0 -6 0zM87 294 a3 3 0 1 0 6 0 a3 3 0 1 0 -6 0z" fill="rgba(255, 255, 255, 0.45)"></path><path d="M30 294L54 270L66 270L78 282" stroke-width="2" stroke="rgba(255, 255, 255, 0.45)"></path><path d="M27 294 a3 3 0 1 0 6 0 a3 3 0 1 0 -6 0zM75 282 a3 3 0 1 0 6 0 a3 3 0 1 0 -6 0z" fill="rgba(255, 255, 255, 0.45)"></path><path d="M318 42L318 18" stroke-width="2" stroke="rgba(255, 255, 255, 0.45)"></path><path d="M315 42 a3 3 0 1 0 6 0 a3 3 0 1 0 -6 0zM315 18 a3 3 0 1 0 6 0 a3 3 0 1 0 -6 0z" fill="rgba(255, 255, 255, 0.45)"></path><path d="M306 270L282 294L270 294" stroke-width="2" stroke="rgba(255, 255, 255, 0.45)"></path><path d="M303 270 a3 3 0 1 0 6 0 a3 3 0 1 0 -6 0zM267 294 a3 3 0 1 0 6 0 a3 3 0 1 0 -6 0z" fill="rgba(255, 255, 255, 0.45)"></path><path d="M270 78L270 42L294 18L306 18" stroke-width="2" stroke="rgba(255, 255, 255, 0.45)"></path><path d="M267 78 a3 3 0 1 0 6 0 a3 3 0 1 0 -6 0zM303 18 a3 3 0 1 0 6 0 a3 3 0 1 0 -6 0z" fill="rgba(255, 255, 255, 0.45)"></path><path d="M210 54L210 66L198 78L186 78L162 102L162 114" stroke-width="2" stroke="rgba(255, 255, 255, 0.45)"></path><path d="M207 54 a3 3 0 1 0 6 0 a3 3 0 1 0 -6 0zM159 114 a3 3 0 1 0 6 0 a3 3 0 1 0 -6 0z" fill="rgba(255, 255, 255, 0.45)"></path><path d="M294 174L318 174L342 198L342 210" stroke-width="2" stroke="rgba(255, 255, 255, 0.45)"></path><path d="M291 174 a3 3 0 1 0 6 0 a3 3 0 1 0 -6 0zM339 210 a3 3 0 1 0 6 0 a3 3 0 1 0 -6 0z" fill="rgba(255, 255, 255, 0.45)"></path><path d="M294 150L282 162L282 258L258 282L246 282" stroke-width="2" stroke="rgba(255, 255, 255, 0.45)"></path><path d="M291 150 a3 3 0 1 0 6 0 a3 3 0 1 0 -6 0zM243 282 a3 3 0 1 0 6 0 a3 3 0 1 0 -6 0z" fill="rgba(255, 255, 255, 0.45)"></path><path d="M126 246L126 234L174 186L198 186" stroke-width="2" stroke="rgba(255, 255, 255, 0.45)"></path><path d="M123 246 a3 3 0 1 0 6 0 a3 3 0 1 0 -6 0zM195 186 a3 3 0 1 0 6 0 a3 3 0 1 0 -6 0z" fill="rgba(255, 255, 255, 0.45)"></path><path d="M90 198L90 234L114 258L126 258" stroke-width="2" stroke="rgba(255, 255, 255, 0.45)"></path><path d="M87 198 a3 3 0 1 0 6 0 a3 3 0 1 0 -6 0zM123 258 a3 3 0 1 0 6 0 a3 3 0 1 0 -6 0z" fill="rgba(255, 255, 255, 0.45)"></path><path d="M234 78L246 78L258 66L258 54" stroke-width="2" stroke="rgba(255, 255, 255, 0.45)"></path><path d="M231 78 a3 3 0 1 0 6 0 a3 3 0 1 0 -6 0zM255 54 a3 3 0 1 0 6 0 a3 3 0 1 0 -6 0z" fill="rgba(255, 255, 255, 0.45)"></path><path d="M354 174L306 126" stroke-width="2" stroke="rgba(255, 255, 255, 0.45)"></path><path d="M351 174 a3 3 0 1 0 6 0 a3 3 0 1 0 -6 0zM303 126 a3 3 0 1 0 6 0 a3 3 0 1 0 -6 0z" fill="rgba(255, 255, 255, 0.45)"></path><path d="M246 258L270 234L270 222" stroke-width="2" stroke="rgba(255, 255, 255, 0.45)"></path><path d="M243 258 a3 3 0 1 0 6 0 a3 3 0 1 0 -6 0zM267 222 a3 3 0 1 0 6 0 a3 3 0 1 0 -6 0z" fill="rgba(255, 255, 255, 0.45)"></path><path d="M150 186L126 162L78 162" stroke-width="2" stroke="rgba(255, 255, 255, 0.45)"></path><path d="M147 186 a3 3 0 1 0 6 0 a3 3 0 1 0 -6 0zM75 162 a3 3 0 1 0 6 0 a3 3 0 1 0 -6 0z" fill="rgba(255, 255, 255, 0.45)"></path><path d="M102 234L102 186" stroke-width="2" stroke="rgba(255, 255, 255, 0.45)"></path><path d="M99 234 a3 3 0 1 0 6 0 a3 3 0 1 0 -6 0zM99 186 a3 3 0 1 0 6 0 a3 3 0 1 0 -6 0z" fill="rgba(255, 255, 255, 0.45)"></path><path d="M18 234L30 222L42 222" stroke-width="2" stroke="rgba(255, 255, 255, 0.45)"></path><path d="M15 234 a3 3 0 1 0 6 0 a3 3 0 1 0 -6 0zM39 222 a3 3 0 1 0 6 0 a3 3 0 1 0 -6 0z" fill="rgba(255, 255, 255, 0.45)"></path><path d="M78 66L138 66L162 42L174 42" stroke-width="2" stroke="rgba(255, 255, 255, 0.45)"></path><path d="M75 66 a3 3 0 1 0 6 0 a3 3 0 1 0 -6 0zM171 42 a3 3 0 1 0 6 0 a3 3 0 1 0 -6 0z" fill="rgba(255, 255, 255, 0.45)"></path><path d="M186 6L150 6L138 18L114 18L102 30L102 54" stroke-width="2" stroke="rgba(255, 255, 255, 0.45)"></path><path d="M183 6 a3 3 0 1 0 6 0 a3 3 0 1 0 -6 0zM99 54 a3 3 0 1 0 6 0 a3 3 0 1 0 -6 0z" fill="rgba(255, 255, 255, 0.45)"></path><path d="M150 150L174 150" stroke-width="2" stroke="rgba(255, 255, 255, 0.45)"></path><path d="M147 150 a3 3 0 1 0 6 0 a3 3 0 1 0 -6 0zM171 150 a3 3 0 1 0 6 0 a3 3 0 1 0 -6 0z" fill="rgba(255, 255, 255, 0.45)"></path><path d="M294 54L282 66L282 78" stroke-width="2" stroke="rgba(255, 255, 255, 0.45)"></path><path d="M291 54 a3 3 0 1 0 6 0 a3 3 0 1 0 -6 0zM279 78 a3 3 0 1 0 6 0 a3 3 0 1 0 -6 0z" fill="rgba(255, 255, 255, 0.45)"></path><path d="M246 186L222 210" stroke-width="2" stroke="rgba(255, 255, 255, 0.45)"></path><path d="M243 186 a3 3 0 1 0 6 0 a3 3 0 1 0 -6 0zM219 210 a3 3 0 1 0 6 0 a3 3 0 1 0 -6 0z" fill="rgba(255, 255, 255, 0.45)"></path><path d="M126 210L114 198L114 186" stroke-width="2" stroke="rgba(255, 255, 255, 0.45)"></path><path d="M123 210 a3 3 0 1 0 6 0 a3 3 0 1 0 -6 0zM111 186 a3 3 0 1 0 6 0 a3 3 0 1 0 -6 0z" fill="rgba(255, 255, 255, 0.45)"></path><path d="M234 222L258 198L258 174" stroke-width="2" stroke="rgba(255, 255, 255, 0.45)"></path><path d="M231 222 a3 3 0 1 0 6 0 a3 3 0 1 0 -6 0zM255 174 a3 3 0 1 0 6 0 a3 3 0 1 0 -6 0z" fill="rgba(255, 255, 255, 0.45)"></path><path d="M6 90L30 66L42 66L54 54" stroke-width="2" stroke="rgba(255, 255, 255, 0.45)"></path><path d="M3 90 a3 3 0 1 0 6 0 a3 3 0 1 0 -6 0zM51 54 a3 3 0 1 0 6 0 a3 3 0 1 0 -6 0z" fill="rgba(255, 255, 255, 0.45)"></path><path d="M342 102L330 102L318 90" stroke-width="2" stroke="rgba(255, 255, 255, 0.45)"></path><path d="M339 102 a3 3 0 1 0 6 0 a3 3 0 1 0 -6 0zM315 90 a3 3 0 1 0 6 0 a3 3 0 1 0 -6 0z" fill="rgba(255, 255, 255, 0.45)"></path><path d="M54 102L66 114L78 114L90 102" stroke-width="2" stroke="rgba(255, 255, 255, 0.45)"></path><path d="M51 102 a3 3 0 1 0 6 0 a3 3 0 1 0 -6 0zM87 102 a3 3 0 1 0 6 0 a3 3 0 1 0 -6 0z" fill="rgba(255, 255, 255, 0.45)"></path><path d="M18 222L18 198" stroke-width="2" stroke="rgba(255, 255, 255, 0.45)"></path><path d="M15 222 a3 3 0 1 0 6 0 a3 3 0 1 0 -6 0zM15 198 a3 3 0 1 0 6 0 a3 3 0 1 0 -6 0z" fill="rgba(255, 255, 255, 0.45)"></path><path d="M330 198L318 210L306 210" stroke-width="2" stroke="rgba(255, 255, 255, 0.45)"></path><path d="M327 198 a3 3 0 1 0 6 0 a3 3 0 1 0 -6 0zM303 210 a3 3 0 1 0 6 0 a3 3 0 1 0 -6 0z" fill="rgba(255, 255, 255, 0.45)"></path><path d="M354 78L342 90L330 90" stroke-width="2" stroke="rgba(255, 255, 255, 0.45)"></path><path d="M351 78 a3 3 0 1 0 6 0 a3 3 0 1 0 -6 0zM327 90 a3 3 0 1 0 6 0 a3 3 0 1 0 -6 0z" fill="rgba(255, 255, 255, 0.45)"></path><path d="M342 294L318 270" stroke-width="2" stroke="rgba(255, 255, 255, 0.45)"></path><path d="M339 294 a3 3 0 1 0 6 0 a3 3 0 1 0 -6 0zM315 270 a3 3 0 1 0 6 0 a3 3 0 1 0 -6 0z" fill="rgba(255, 255, 255, 0.45)"></path><path d="M114 30L162 30" stroke-width="2" stroke="rgba(255, 255, 255, 0.45)"></path><path d="M111 30 a3 3 0 1 0 6 0 a3 3 0 1 0 -6 0zM159 30 a3 3 0 1 0 6 0 a3 3 0 1 0 -6 0z" fill="rgba(255, 255, 255, 0.45)"></path><path d="M330 138L354 162" stroke-width="2" stroke="rgba(255, 255, 255, 0.45)"></path><path d="M327 138 a3 3 0 1 0 6 0 a3 3 0 1 0 -6 0zM351 162 a3 3 0 1 0 6 0 a3 3 0 1 0 -6 0z" fill="rgba(255, 255, 255, 0.45)"></path><path d="M306 54L306 30" stroke-width="2" stroke="rgba(255, 255, 255, 0.45)"></path><path d="M303 54 a3 3 0 1 0 6 0 a3 3 0 1 0 -6 0zM303 30 a3 3 0 1 0 6 0 a3 3 0 1 0 -6 0z" fill="rgba(255, 255, 255, 0.45)"></path><path d="M354 138L342 138L330 126L318 126" stroke-width="2" stroke="rgba(255, 255, 255, 0.45)"></path><path d="M351 138 a3 3 0 1 0 6 0 a3 3 0 1 0 -6 0zM315 126 a3 3 0 1 0 6 0 a3 3 0 1 0 -6 0z" fill="rgba(255, 255, 255, 0.45)"></path><path d="M114 126L114 114L126 102L126 90" stroke-width="2" stroke="rgba(255, 255, 255, 0.45)"></path><path d="M111 126 a3 3 0 1 0 6 0 a3 3 0 1 0 -6 0zM123 90 a3 3 0 1 0 6 0 a3 3 0 1 0 -6 0z" fill="rgba(255, 255, 255, 0.45)"></path><path d="M354 54L354 66L342 78L330 78" stroke-width="2" stroke="rgba(255, 255, 255, 0.45)"></path><path d="M351 54 a3 3 0 1 0 6 0 a3 3 0 1 0 -6 0zM327 78 a3 3 0 1 0 6 0 a3 3 0 1 0 -6 0z" fill="rgba(255, 255, 255, 0.45)"></path></g></g><defs><mask id="SvgjsMask1184"><rect width="350" height="300" fill="#ffffff"></rect></mask><mask id="SvgjsMask1185"><rect width="350" height="300" fill="white"></rect><path d="M52.5 162 a1.5 1.5 0 1 0 3 0 a1.5 1.5 0 1 0 -3 0zM196.5 246 a1.5 1.5 0 1 0 3 0 a1.5 1.5 0 1 0 -3 0z" fill="black"></path><path d="M100.5 6 a1.5 1.5 0 1 0 3 0 a1.5 1.5 0 1 0 -3 0zM4.5 6 a1.5 1.5 0 1 0 3 0 a1.5 1.5 0 1 0 -3 0z" fill="black"></path><path d="M136.5 6 a1.5 1.5 0 1 0 3 0 a1.5 1.5 0 1 0 -3 0zM40.5 210 a1.5 1.5 0 1 0 3 0 a1.5 1.5 0 1 0 -3 0z" fill="black"></path><path d="M268.5 210 a1.5 1.5 0 1 0 3 0 a1.5 1.5 0 1 0 -3 0zM160.5 294 a1.5 1.5 0 1 0 3 0 a1.5 1.5 0 1 0 -3 0z" fill="black"></path><path d="M292.5 186 a1.5 1.5 0 1 0 3 0 a1.5 1.5 0 1 0 -3 0zM196.5 294 a1.5 1.5 0 1 0 3 0 a1.5 1.5 0 1 0 -3 0z" fill="black"></path><path d="M316.5 246 a1.5 1.5 0 1 0 3 0 a1.5 1.5 0 1 0 -3 0zM352.5 282 a1.5 1.5 0 1 0 3 0 a1.5 1.5 0 1 0 -3 0z" fill="black"></path><path d="M208.5 90 a1.5 1.5 0 1 0 3 0 a1.5 1.5 0 1 0 -3 0zM280.5 6 a1.5 1.5 0 1 0 3 0 a1.5 1.5 0 1 0 -3 0z" fill="black"></path><path d="M196.5 174 a1.5 1.5 0 1 0 3 0 a1.5 1.5 0 1 0 -3 0zM352.5 42 a1.5 1.5 0 1 0 3 0 a1.5 1.5 0 1 0 -3 0z" fill="black"></path><path d="M136.5 78 a1.5 1.5 0 1 0 3 0 a1.5 1.5 0 1 0 -3 0zM112.5 102 a1.5 1.5 0 1 0 3 0 a1.5 1.5 0 1 0 -3 0z" fill="black"></path><path d="M196.5 162 a1.5 1.5 0 1 0 3 0 a1.5 1.5 0 1 0 -3 0zM256.5 102 a1.5 1.5 0 1 0 3 0 a1.5 1.5 0 1 0 -3 0z" fill="black"></path><path d="M52.5 30 a1.5 1.5 0 1 0 3 0 a1.5 1.5 0 1 0 -3 0zM4.5 18 a1.5 1.5 0 1 0 3 0 a1.5 1.5 0 1 0 -3 0z" fill="black"></path><path d="M172.5 114 a1.5 1.5 0 1 0 3 0 a1.5 1.5 0 1 0 -3 0zM268.5 6 a1.5 1.5 0 1 0 3 0 a1.5 1.5 0 1 0 -3 0z" fill="black"></path><path d="M136.5 90 a1.5 1.5 0 1 0 3 0 a1.5 1.5 0 1 0 -3 0zM256.5 6 a1.5 1.5 0 1 0 3 0 a1.5 1.5 0 1 0 -3 0z" fill="black"></path><path d="M112.5 234 a1.5 1.5 0 1 0 3 0 a1.5 1.5 0 1 0 -3 0zM196.5 102 a1.5 1.5 0 1 0 3 0 a1.5 1.5 0 1 0 -3 0z" fill="black"></path><path d="M316.5 102 a1.5 1.5 0 1 0 3 0 a1.5 1.5 0 1 0 -3 0zM88.5 270 a1.5 1.5 0 1 0 3 0 a1.5 1.5 0 1 0 -3 0z" fill="black"></path><path d="M28.5 282 a1.5 1.5 0 1 0 3 0 a1.5 1.5 0 1 0 -3 0zM4.5 138 a1.5 1.5 0 1 0 3 0 a1.5 1.5 0 1 0 -3 0z" fill="black"></path><path d="M340.5 246 a1.5 1.5 0 1 0 3 0 a1.5 1.5 0 1 0 -3 0zM352.5 114 a1.5 1.5 0 1 0 3 0 a1.5 1.5 0 1 0 -3 0z" fill="black"></path><path d="M160.5 234 a1.5 1.5 0 1 0 3 0 a1.5 1.5 0 1 0 -3 0zM280.5 114 a1.5 1.5 0 1 0 3 0 a1.5 1.5 0 1 0 -3 0z" fill="black"></path><path d="M268.5 150 a1.5 1.5 0 1 0 3 0 a1.5 1.5 0 1 0 -3 0zM196.5 258 a1.5 1.5 0 1 0 3 0 a1.5 1.5 0 1 0 -3 0z" fill="black"></path><path d="M268.5 30 a1.5 1.5 0 1 0 3 0 a1.5 1.5 0 1 0 -3 0zM220.5 78 a1.5 1.5 0 1 0 3 0 a1.5 1.5 0 1 0 -3 0z" fill="black"></path><path d="M28.5 210 a1.5 1.5 0 1 0 3 0 a1.5 1.5 0 1 0 -3 0zM16.5 150 a1.5 1.5 0 1 0 3 0 a1.5 1.5 0 1 0 -3 0z" fill="black"></path><path d="M208.5 246 a1.5 1.5 0 1 0 3 0 a1.5 1.5 0 1 0 -3 0zM256.5 162 a1.5 1.5 0 1 0 3 0 a1.5 1.5 0 1 0 -3 0z" fill="black"></path><path d="M136.5 246 a1.5 1.5 0 1 0 3 0 a1.5 1.5 0 1 0 -3 0zM136.5 150 a1.5 1.5 0 1 0 3 0 a1.5 1.5 0 1 0 -3 0z" fill="black"></path><path d="M328.5 222 a1.5 1.5 0 1 0 3 0 a1.5 1.5 0 1 0 -3 0zM352.5 270 a1.5 1.5 0 1 0 3 0 a1.5 1.5 0 1 0 -3 0z" fill="black"></path><path d="M100.5 174 a1.5 1.5 0 1 0 3 0 a1.5 1.5 0 1 0 -3 0zM76.5 234 a1.5 1.5 0 1 0 3 0 a1.5 1.5 0 1 0 -3 0z" fill="black"></path><path d="M112.5 174 a1.5 1.5 0 1 0 3 0 a1.5 1.5 0 1 0 -3 0zM136.5 198 a1.5 1.5 0 1 0 3 0 a1.5 1.5 0 1 0 -3 0z" fill="black"></path><path d="M4.5 42 a1.5 1.5 0 1 0 3 0 a1.5 1.5 0 1 0 -3 0zM88.5 18 a1.5 1.5 0 1 0 3 0 a1.5 1.5 0 1 0 -3 0z" fill="black"></path><path d="M172.5 30 a1.5 1.5 0 1 0 3 0 a1.5 1.5 0 1 0 -3 0zM208.5 6 a1.5 1.5 0 1 0 3 0 a1.5 1.5 0 1 0 -3 0z" fill="black"></path><path d="M196.5 54 a1.5 1.5 0 1 0 3 0 a1.5 1.5 0 1 0 -3 0zM88.5 138 a1.5 1.5 0 1 0 3 0 a1.5 1.5 0 1 0 -3 0z" fill="black"></path><path d="M244.5 30 a1.5 1.5 0 1 0 3 0 a1.5 1.5 0 1 0 -3 0zM196.5 42 a1.5 1.5 0 1 0 3 0 a1.5 1.5 0 1 0 -3 0z" fill="black"></path><path d="M268.5 246 a1.5 1.5 0 1 0 3 0 a1.5 1.5 0 1 0 -3 0zM208.5 282 a1.5 1.5 0 1 0 3 0 a1.5 1.5 0 1 0 -3 0z" fill="black"></path><path d="M112.5 90 a1.5 1.5 0 1 0 3 0 a1.5 1.5 0 1 0 -3 0zM100.5 102 a1.5 1.5 0 1 0 3 0 a1.5 1.5 0 1 0 -3 0z" fill="black"></path><path d="M148.5 114 a1.5 1.5 0 1 0 3 0 a1.5 1.5 0 1 0 -3 0zM184.5 150 a1.5 1.5 0 1 0 3 0 a1.5 1.5 0 1 0 -3 0z" fill="black"></path><path d="M76.5 18 a1.5 1.5 0 1 0 3 0 a1.5 1.5 0 1 0 -3 0zM52.5 18 a1.5 1.5 0 1 0 3 0 a1.5 1.5 0 1 0 -3 0z" fill="black"></path><path d="M196.5 126 a1.5 1.5 0 1 0 3 0 a1.5 1.5 0 1 0 -3 0zM172.5 126 a1.5 1.5 0 1 0 3 0 a1.5 1.5 0 1 0 -3 0z" fill="black"></path><path d="M64.5 294 a1.5 1.5 0 1 0 3 0 a1.5 1.5 0 1 0 -3 0zM88.5 294 a1.5 1.5 0 1 0 3 0 a1.5 1.5 0 1 0 -3 0z" fill="black"></path><path d="M28.5 294 a1.5 1.5 0 1 0 3 0 a1.5 1.5 0 1 0 -3 0zM76.5 282 a1.5 1.5 0 1 0 3 0 a1.5 1.5 0 1 0 -3 0z" fill="black"></path><path d="M316.5 42 a1.5 1.5 0 1 0 3 0 a1.5 1.5 0 1 0 -3 0zM316.5 18 a1.5 1.5 0 1 0 3 0 a1.5 1.5 0 1 0 -3 0z" fill="black"></path><path d="M304.5 270 a1.5 1.5 0 1 0 3 0 a1.5 1.5 0 1 0 -3 0zM268.5 294 a1.5 1.5 0 1 0 3 0 a1.5 1.5 0 1 0 -3 0z" fill="black"></path><path d="M268.5 78 a1.5 1.5 0 1 0 3 0 a1.5 1.5 0 1 0 -3 0zM304.5 18 a1.5 1.5 0 1 0 3 0 a1.5 1.5 0 1 0 -3 0z" fill="black"></path><path d="M208.5 54 a1.5 1.5 0 1 0 3 0 a1.5 1.5 0 1 0 -3 0zM160.5 114 a1.5 1.5 0 1 0 3 0 a1.5 1.5 0 1 0 -3 0z" fill="black"></path><path d="M292.5 174 a1.5 1.5 0 1 0 3 0 a1.5 1.5 0 1 0 -3 0zM340.5 210 a1.5 1.5 0 1 0 3 0 a1.5 1.5 0 1 0 -3 0z" fill="black"></path><path d="M292.5 150 a1.5 1.5 0 1 0 3 0 a1.5 1.5 0 1 0 -3 0zM244.5 282 a1.5 1.5 0 1 0 3 0 a1.5 1.5 0 1 0 -3 0z" fill="black"></path><path d="M124.5 246 a1.5 1.5 0 1 0 3 0 a1.5 1.5 0 1 0 -3 0zM196.5 186 a1.5 1.5 0 1 0 3 0 a1.5 1.5 0 1 0 -3 0z" fill="black"></path><path d="M88.5 198 a1.5 1.5 0 1 0 3 0 a1.5 1.5 0 1 0 -3 0zM124.5 258 a1.5 1.5 0 1 0 3 0 a1.5 1.5 0 1 0 -3 0z" fill="black"></path><path d="M232.5 78 a1.5 1.5 0 1 0 3 0 a1.5 1.5 0 1 0 -3 0zM256.5 54 a1.5 1.5 0 1 0 3 0 a1.5 1.5 0 1 0 -3 0z" fill="black"></path><path d="M352.5 174 a1.5 1.5 0 1 0 3 0 a1.5 1.5 0 1 0 -3 0zM304.5 126 a1.5 1.5 0 1 0 3 0 a1.5 1.5 0 1 0 -3 0z" fill="black"></path><path d="M244.5 258 a1.5 1.5 0 1 0 3 0 a1.5 1.5 0 1 0 -3 0zM268.5 222 a1.5 1.5 0 1 0 3 0 a1.5 1.5 0 1 0 -3 0z" fill="black"></path><path d="M148.5 186 a1.5 1.5 0 1 0 3 0 a1.5 1.5 0 1 0 -3 0zM76.5 162 a1.5 1.5 0 1 0 3 0 a1.5 1.5 0 1 0 -3 0z" fill="black"></path><path d="M100.5 234 a1.5 1.5 0 1 0 3 0 a1.5 1.5 0 1 0 -3 0zM100.5 186 a1.5 1.5 0 1 0 3 0 a1.5 1.5 0 1 0 -3 0z" fill="black"></path><path d="M16.5 234 a1.5 1.5 0 1 0 3 0 a1.5 1.5 0 1 0 -3 0zM40.5 222 a1.5 1.5 0 1 0 3 0 a1.5 1.5 0 1 0 -3 0z" fill="black"></path><path d="M76.5 66 a1.5 1.5 0 1 0 3 0 a1.5 1.5 0 1 0 -3 0zM172.5 42 a1.5 1.5 0 1 0 3 0 a1.5 1.5 0 1 0 -3 0z" fill="black"></path><path d="M184.5 6 a1.5 1.5 0 1 0 3 0 a1.5 1.5 0 1 0 -3 0zM100.5 54 a1.5 1.5 0 1 0 3 0 a1.5 1.5 0 1 0 -3 0z" fill="black"></path><path d="M148.5 150 a1.5 1.5 0 1 0 3 0 a1.5 1.5 0 1 0 -3 0zM172.5 150 a1.5 1.5 0 1 0 3 0 a1.5 1.5 0 1 0 -3 0z" fill="black"></path><path d="M292.5 54 a1.5 1.5 0 1 0 3 0 a1.5 1.5 0 1 0 -3 0zM280.5 78 a1.5 1.5 0 1 0 3 0 a1.5 1.5 0 1 0 -3 0z" fill="black"></path><path d="M244.5 186 a1.5 1.5 0 1 0 3 0 a1.5 1.5 0 1 0 -3 0zM220.5 210 a1.5 1.5 0 1 0 3 0 a1.5 1.5 0 1 0 -3 0z" fill="black"></path><path d="M124.5 210 a1.5 1.5 0 1 0 3 0 a1.5 1.5 0 1 0 -3 0zM112.5 186 a1.5 1.5 0 1 0 3 0 a1.5 1.5 0 1 0 -3 0z" fill="black"></path><path d="M232.5 222 a1.5 1.5 0 1 0 3 0 a1.5 1.5 0 1 0 -3 0zM256.5 174 a1.5 1.5 0 1 0 3 0 a1.5 1.5 0 1 0 -3 0z" fill="black"></path><path d="M4.5 90 a1.5 1.5 0 1 0 3 0 a1.5 1.5 0 1 0 -3 0zM52.5 54 a1.5 1.5 0 1 0 3 0 a1.5 1.5 0 1 0 -3 0z" fill="black"></path><path d="M340.5 102 a1.5 1.5 0 1 0 3 0 a1.5 1.5 0 1 0 -3 0zM316.5 90 a1.5 1.5 0 1 0 3 0 a1.5 1.5 0 1 0 -3 0z" fill="black"></path><path d="M52.5 102 a1.5 1.5 0 1 0 3 0 a1.5 1.5 0 1 0 -3 0zM88.5 102 a1.5 1.5 0 1 0 3 0 a1.5 1.5 0 1 0 -3 0z" fill="black"></path><path d="M16.5 222 a1.5 1.5 0 1 0 3 0 a1.5 1.5 0 1 0 -3 0zM16.5 198 a1.5 1.5 0 1 0 3 0 a1.5 1.5 0 1 0 -3 0z" fill="black"></path><path d="M328.5 198 a1.5 1.5 0 1 0 3 0 a1.5 1.5 0 1 0 -3 0zM304.5 210 a1.5 1.5 0 1 0 3 0 a1.5 1.5 0 1 0 -3 0z" fill="black"></path><path d="M352.5 78 a1.5 1.5 0 1 0 3 0 a1.5 1.5 0 1 0 -3 0zM328.5 90 a1.5 1.5 0 1 0 3 0 a1.5 1.5 0 1 0 -3 0z" fill="black"></path><path d="M340.5 294 a1.5 1.5 0 1 0 3 0 a1.5 1.5 0 1 0 -3 0zM316.5 270 a1.5 1.5 0 1 0 3 0 a1.5 1.5 0 1 0 -3 0z" fill="black"></path><path d="M112.5 30 a1.5 1.5 0 1 0 3 0 a1.5 1.5 0 1 0 -3 0zM160.5 30 a1.5 1.5 0 1 0 3 0 a1.5 1.5 0 1 0 -3 0z" fill="black"></path><path d="M328.5 138 a1.5 1.5 0 1 0 3 0 a1.5 1.5 0 1 0 -3 0zM352.5 162 a1.5 1.5 0 1 0 3 0 a1.5 1.5 0 1 0 -3 0z" fill="black"></path><path d="M304.5 54 a1.5 1.5 0 1 0 3 0 a1.5 1.5 0 1 0 -3 0zM304.5 30 a1.5 1.5 0 1 0 3 0 a1.5 1.5 0 1 0 -3 0z" fill="black"></path><path d="M352.5 138 a1.5 1.5 0 1 0 3 0 a1.5 1.5 0 1 0 -3 0zM316.5 126 a1.5 1.5 0 1 0 3 0 a1.5 1.5 0 1 0 -3 0z" fill="black"></path><path d="M112.5 126 a1.5 1.5 0 1 0 3 0 a1.5 1.5 0 1 0 -3 0zM124.5 90 a1.5 1.5 0 1 0 3 0 a1.5 1.5 0 1 0 -3 0z" fill="black"></path><path d="M352.5 54 a1.5 1.5 0 1 0 3 0 a1.5 1.5 0 1 0 -3 0zM328.5 78 a1.5 1.5 0 1 0 3 0 a1.5 1.5 0 1 0 -3 0z" fill="black"></path></mask></defs></svg>